<svg width="179" height="175" viewBox="0 0 179 175" fill="none" xmlns="http://www.w3.org/2000/svg">
<path fill-rule="evenodd" clip-rule="evenodd" d="M102.075 20.3208L171.73 20.3208C174.921 20.3208 177.515 22.9948 177.515 26.2829L177.515 145.526C177.515 148.814 174.921 151.488 171.73 151.488L102.075 151.488V174.22L1.32812 156.203L1.32812 19.5825L102.075 1.56584V20.3208ZM102.075 145.526L171.721 145.526L171.73 26.2829L102.075 26.2829V53.6462C106.451 48.3578 112.959 44.9991 120.232 44.9991V69.592H144.092C144.092 83.1737 133.41 94.1848 120.232 94.1848C112.959 94.1848 106.451 90.8262 102.075 85.5377V104.868H156.385V111.824L102.075 111.824L102.075 123.582L156.385 123.582V130.538L102.075 130.538V145.526Z" fill="#3E4C61"/>
<path fill-rule="evenodd" clip-rule="evenodd" d="M123.928 41.5202V66.113H147.788C147.788 52.5313 137.106 41.5202 123.928 41.5202Z" fill="#3E4C61"/>
<path fill-rule="evenodd" clip-rule="evenodd" d="M43.9585 86.84C47.9778 87.1579 51.9036 87.932 54.3446 83.6373C56.1899 80.3969 56.0347 74.4755 53.8944 71.9853C51.1265 68.7657 47.5507 69.2248 43.9585 69.8111L43.9585 86.84ZM43.6751 117.326H33.584L33.584 59.273C41.369 59.273 49.1144 59.0474 56.831 59.425C58.8594 59.5244 61.2147 61.0785 62.7119 62.6724C68.4425 68.7707 68.4434 76.3675 66.7312 83.9443C65.205 90.6925 60.9814 95.4404 54.3244 97.1098C51.0079 97.9415 47.4591 97.7885 43.6751 98.1094V117.326Z" fill="#D4D6DB"/>
</svg>
