<svg width="248" height="306" viewBox="0 0 248 306" fill="none" xmlns="http://www.w3.org/2000/svg">
<path fill-rule="evenodd" clip-rule="evenodd" d="M247.026 71.6178C247.024 71.596 247.023 71.5749 247.022 71.554L247.022 71.5536C247.019 71.5106 247.016 71.4685 247.008 71.4236L246.881 70.4103C246.395 67.2792 244.932 64.3059 242.723 62.0061C235.931 53.9964 227.633 46.1808 216.628 37.4247C193.593 19.0872 170.418 7.3396 147.735 2.52162C132.972 -0.609467 117.707 -0.827915 102.483 1.88448C90.0884 4.11143 76.9773 8.7231 63.496 15.6103C45.6504 24.7305 28.43 37.4672 12.3204 53.4563C9.60718 56.1505 6.73004 59.0753 4.10783 62.1881C-1.36725 68.6566 -1.36725 77.0122 4.09569 83.4686C10.809 91.4419 19.1552 99.3121 30.3542 108.238C53.3774 126.576 76.5524 138.323 99.2479 143.147C107.163 144.828 115.273 145.684 123.339 145.684C130.326 145.684 137.44 145.047 144.499 143.784C157.04 141.539 169.793 137.055 183.474 130.059C201.344 120.938 218.565 108.202 234.656 92.2308C237.284 89.6276 240.076 86.7938 242.723 83.6688C244.908 81.3812 246.377 78.4443 246.869 75.3435L247.057 74.8702L247.069 73.4503C247.075 73.244 247.081 73.0377 247.081 72.8375L247.026 71.6178ZM135.734 77.2186C135.734 83.948 130.271 89.4031 123.546 89.4031C116.814 89.4031 111.351 83.948 111.351 77.2186C111.351 75.7016 111.661 74.2695 112.171 72.9224H134.921C135.425 74.2695 135.734 75.7016 135.734 77.2186ZM232.21 74.4698L232.598 74.0511C232.805 73.8387 232.962 73.5778 233.041 73.3047L233.047 72.9285H162.891C163.067 74.4273 163.176 75.9503 163.176 77.4977C163.176 99.3849 145.44 117.122 123.546 117.122C101.658 117.122 83.9031 99.3849 83.9031 77.4977C83.9031 75.9503 84.0124 74.4333 84.1884 72.9285H14.4692C14.4692 72.9285 13.8743 73.3957 14.7848 74.4698C20.8973 81.7331 28.6121 88.9844 39.0706 97.3218C60.3821 114.294 81.6087 125.119 102.161 129.488C115.169 132.249 128.608 132.431 142.041 130.034C153.21 128.038 164.682 123.978 177.125 117.619C193.702 109.154 209.751 97.2733 224.817 82.3096C227.275 79.8763 229.861 77.2489 232.21 74.4698Z" fill="#3E4C61"/>
<path fill-rule="evenodd" clip-rule="evenodd" d="M201.332 211.176V266.328H234.401V305.479H13V273.13H43.8049V223.361H85.2443V193.64H135.558V161H156.548V193.634H171.638V243.67H184.536V211.176H201.332ZM69.6689 255.928H83.83V241.771H69.6689V255.928ZM114.987 255.928H100.826V241.771H114.987V255.928ZM100.826 227.614H114.987V213.458H100.826V227.614ZM156.056 275.758H141.889V261.595H156.056V275.758ZM141.889 247.438H156.056V233.276H141.889V247.438Z" fill="#3E4C61"/>
</svg>
